solid ascii
  facet normal 0.000000e+000 1.000000e+000 -0.000000e+000
    outer loop
      vertex   -7.906779e+001 9.580763e+001 3.716488e+001
      vertex   -8.166779e+001 9.580763e+001 3.716488e+001
      vertex   -7.906779e+001 9.580763e+001 3.976490e+001
    endloop
  endfacet
  facet normal 0.000000e+000 7.071099e-001 0.000000e+000
    outer loop
      vertex   -7.906779e+001 9.580763e+001 3.976490e+001
      vertex   -8.166779e+001 9.580763e+001 3.716488e+001
      vertex   -8.166779e+001 9.580763e+001 3.976490e+001
    endloop
  endfacet
  facet normal -0.000000e+000 -0.000000e+000 -1.000000e+000
    outer loop
      vertex   -7.906779e+001 9.580763e+001 3.716488e+001
      vertex   -7.906779e+001 6.605783e+001 3.716488e+001
      vertex   -8.166779e+001 9.580763e+001 3.716488e+001
    endloop
  endfacet
  facet normal 0.000000e+000 0.000000e+000 -8.706363e-002
    outer loop
      vertex   -8.166779e+001 9.580763e+001 3.716488e+001
      vertex   -7.906779e+001 6.605783e+001 3.716488e+001
      vertex   -8.166779e+001 6.605783e+001 3.716488e+001
    endloop
  endfacet
  facet normal 0.000000e+000 0.000000e+000 -9.962028e-001
    outer loop
      vertex   -8.166779e+001 6.605783e+001 3.716488e+001
      vertex   -7.906779e+001 6.605783e+001 3.716488e+001
      vertex   -7.906779e+001 3.630803e+001 3.716488e+001
    endloop
  endfacet
  facet normal 0.000000e+000 0.000000e+000 -8.706362e-002
    outer loop
      vertex   -8.166779e+001 6.605783e+001 3.716488e+001
      vertex   -7.906779e+001 3.630803e+001 3.716488e+001
      vertex   -8.166779e+001 3.630803e+001 3.716488e+001
    endloop
  endfacet
  facet normal -1.000000e+000 -0.000000e+000 -0.000000e+000
    outer loop
      vertex   -8.166779e+001 9.580763e+001 3.976490e+001
      vertex   -8.166779e+001 9.580763e+001 3.716488e+001
      vertex   -8.166779e+001 6.605783e+001 3.976490e+001
    endloop
  endfacet
  facet normal -9.962027e-001 0.000000e+000 0.000000e+000
    outer loop
      vertex   -8.166779e+001 6.605783e+001 3.976490e+001
      vertex   -8.166779e+001 9.580763e+001 3.716488e+001
      vertex   -8.166779e+001 6.605783e+001 3.716488e+001
    endloop
  endfacet
  facet normal -9.962027e-001 0.000000e+000 -0.000000e+000
    outer loop
      vertex   -8.166779e+001 6.605783e+001 3.976490e+001
      vertex   -8.166779e+001 6.605783e+001 3.716488e+001
      vertex   -8.166779e+001 3.630803e+001 3.716488e+001
    endloop
  endfacet
  facet normal -9.962027e-001 0.000000e+000 0.000000e+000
    outer loop
      vertex   -8.166779e+001 3.630803e+001 3.716488e+001
      vertex   -8.166779e+001 3.630803e+001 3.976490e+001
      vertex   -8.166779e+001 6.605783e+001 3.976490e+001
    endloop
  endfacet
  facet normal 0.000000e+000 -1.000000e+000 0.000000e+000
    outer loop
      vertex   -7.906779e+001 3.630803e+001 3.716488e+001
      vertex   -7.906779e+001 3.630803e+001 3.976490e+001
      vertex   -8.166779e+001 3.630803e+001 3.716488e+001
    endloop
  endfacet
  facet normal 0.000000e+000 -7.071037e-001 0.000000e+000
    outer loop
      vertex   -8.166779e+001 3.630803e+001 3.716488e+001
      vertex   -7.906779e+001 3.630803e+001 3.976490e+001
      vertex   -8.166779e+001 3.630803e+001 3.976490e+001
    endloop
  endfacet
  facet normal 0.000000e+000 -0.000000e+000 1.000000e+000
    outer loop
      vertex   -7.906779e+001 3.630803e+001 3.976490e+001
      vertex   -7.906779e+001 6.605783e+001 3.976490e+001
      vertex   -8.166779e+001 3.630803e+001 3.976490e+001
    endloop
  endfacet
  facet normal 0.000000e+000 0.000000e+000 8.706362e-002
    outer loop
      vertex   -8.166779e+001 3.630803e+001 3.976490e+001
      vertex   -7.906779e+001 6.605783e+001 3.976490e+001
      vertex   -8.166779e+001 6.605783e+001 3.976490e+001
    endloop
  endfacet
  facet normal 0.000000e+000 0.000000e+000 1.000000e+000
    outer loop
      vertex   -8.166779e+001 6.605783e+001 3.976490e+001
      vertex   -7.906779e+001 6.605783e+001 3.976490e+001
      vertex   -8.166779e+001 9.580763e+001 3.976490e+001
    endloop
  endfacet
  facet normal -0.000000e+000 0.000000e+000 9.962028e-001
    outer loop
      vertex   -8.166779e+001 9.580763e+001 3.976490e+001
      vertex   -7.906779e+001 6.605783e+001 3.976490e+001
      vertex   -7.906779e+001 9.580763e+001 3.976490e+001
    endloop
  endfacet
  facet normal 1.000000e+000 -0.000000e+000 0.000000e+000
    outer loop
      vertex   -7.906779e+001 3.630803e+001 3.976490e+001
      vertex   -7.906779e+001 3.630803e+001 3.716488e+001
      vertex   -7.906779e+001 6.605783e+001 3.976490e+001
    endloop
  endfacet
  facet normal 9.962027e-001 0.000000e+000 0.000000e+000
    outer loop
      vertex   -7.906779e+001 6.605783e+001 3.976490e+001
      vertex   -7.906779e+001 3.630803e+001 3.716488e+001
      vertex   -7.906779e+001 6.605783e+001 3.716488e+001
    endloop
  endfacet
  facet normal 9.962027e-001 0.000000e+000 0.000000e+000
    outer loop
      vertex   -7.906779e+001 6.605783e+001 3.976490e+001
      vertex   -7.906779e+001 6.605783e+001 3.716488e+001
      vertex   -7.906779e+001 9.580763e+001 3.716488e+001
    endloop
  endfacet
  facet normal 9.962027e-001 0.000000e+000 -0.000000e+000
    outer loop
      vertex   -7.906779e+001 9.580763e+001 3.716488e+001
      vertex   -7.906779e+001 9.580763e+001 3.976490e+001
      vertex   -7.906779e+001 6.605783e+001 3.976490e+001
    endloop
  endfacet
endsolid
